# xmcd
#
# Track frame offsets: 
#        150
#        22843
#        48178
#        65855
#        89621
#        107511
#        123231
#        136879
#        142028
#        175049
#
# Disc length: 2387 seconds
#
# Revision: 0
# Processed by: cddbd v1.5.1PL2 Copyright (c) Steve Scherf et al.
# Submitted via: ExactAudioCopy v0.95b3
#
DISCID=8409510a
DTITLE=Pillow Theory - 9 and a Half
DYEAR=2001
DGENRE=Rock
TTITLE0=Spread the Jam
TTITLE1=Sludge
TTITLE2=Rain Parade
TTITLE3=Cliche
TTITLE4=Chameleon
TTITLE5=Sense #6
TTITLE6=Last Request
TTITLE7=Dirty
TTITLE8=Hangover
TTITLE9=Harvey
EXTD=
EXTT0=
EXTT1=
EXTT2=
EXTT3=
EXTT4=
EXTT5=
EXTT6=
EXTT7=
EXTT8=
EXTT9=
PLAYORDER=
